<svg version="1.1" xmlns="http://www.w3.org/2000/svg" style="display: block;" viewBox="0 0 2048 1058" width="695" height="359" preserveAspectRatio="none">
<defs>
	<linearGradient id="Gradient1" gradientUnits="userSpaceOnUse" x1="1290.78" y1="693.368" x2="1301.63" y2="671.841">
		<stop class="stop0" offset="0" stop-opacity="1" stop-color="rgb(38,101,167)"/>
		<stop class="stop1" offset="1" stop-opacity="1" stop-color="rgb(54,124,189)"/>
	</linearGradient>
	<linearGradient id="Gradient2" gradientUnits="userSpaceOnUse" x1="1186.99" y1="647.609" x2="1183.61" y2="625.362">
		<stop class="stop0" offset="0" stop-opacity="1" stop-color="rgb(44,119,184)"/>
		<stop class="stop1" offset="1" stop-opacity="1" stop-color="rgb(60,147,206)"/>
	</linearGradient>
	<linearGradient id="Gradient3" gradientUnits="userSpaceOnUse" x1="1245.87" y1="653.435" x2="1255.81" y2="639.617">
		<stop class="stop0" offset="0" stop-opacity="1" stop-color="rgb(50,112,176)"/>
		<stop class="stop1" offset="1" stop-opacity="1" stop-color="rgb(63,140,197)"/>
	</linearGradient>
	<linearGradient id="Gradient4" gradientUnits="userSpaceOnUse" x1="1683.15" y1="531.652" x2="1590.22" y2="493.219">
		<stop class="stop0" offset="0" stop-opacity="1" stop-color="rgb(143,213,226)"/>
		<stop class="stop1" offset="1" stop-opacity="1" stop-color="rgb(121,190,245)"/>
	</linearGradient>
	<linearGradient id="Gradient5" gradientUnits="userSpaceOnUse" x1="1367.48" y1="537.382" x2="1346.36" y2="605.878">
		<stop class="stop0" offset="0" stop-opacity="1" stop-color="rgb(144,226,218)"/>
		<stop class="stop1" offset="1" stop-opacity="1" stop-color="rgb(153,214,234)"/>
	</linearGradient>
	<linearGradient id="Gradient6" gradientUnits="userSpaceOnUse" x1="1528.94" y1="919.494" x2="1556.4" y2="853.423">
		<stop class="stop0" offset="0" stop-opacity="1" stop-color="rgb(156,227,216)"/>
		<stop class="stop1" offset="1" stop-opacity="1" stop-color="rgb(134,202,235)"/>
	</linearGradient>
	<linearGradient id="Gradient7" gradientUnits="userSpaceOnUse" x1="1711.34" y1="715.28" x2="1688.31" y2="631.427">
		<stop class="stop0" offset="0" stop-opacity="1" stop-color="rgb(45,177,170)"/>
		<stop class="stop1" offset="1" stop-opacity="1" stop-color="rgb(68,166,183)"/>
	</linearGradient>
	<linearGradient id="Gradient8" gradientUnits="userSpaceOnUse" x1="1675.07" y1="437.67" x2="1788.32" y2="459.131">
		<stop class="stop0" offset="0" stop-opacity="1" stop-color="rgb(66,146,210)"/>
		<stop class="stop1" offset="1" stop-opacity="1" stop-color="rgb(113,185,231)"/>
	</linearGradient>
</defs>
<path transform="translate(0,0)" fill="rgb(9,62,107)" d="M 1402.22 184.411 C 1438.86 145.302 1492.72 114.403 1543.91 98.0242 C 1694.6 49.8112 1872.92 116.764 1924.2 274.47 C 1957.37 376.469 1939.2 470.338 1890.57 563.985 C 1899.07 555.568 1905.74 545.237 1912.35 535.325 C 1953.4 473.768 1963.63 413.406 1968.46 341.936 L 1969.96 341.24 C 1972.08 342.492 1973.63 343.256 1975.41 344.993 C 1976.69 348.472 1978.02 351.974 1979.25 355.468 C 2012.2 448.955 2009.2 563.946 1968.04 654.281 C 1934.01 729.779 1876.87 792.512 1804.87 833.428 C 1752.6 863.192 1693.68 880.148 1633.2 878.214 C 1622.95 877.886 1608.66 878.885 1598.81 876.818 C 1567.11 870.166 1534.38 860.984 1505.92 845.204 C 1494.71 838.191 1483.43 831.281 1472.1 824.473 C 1475.7 827.882 1495.53 847.352 1498.08 849.236 C 1509.98 857.282 1518.71 865.144 1531.54 873.124 C 1549.47 884.275 1559.68 887.302 1577.56 894.786 C 1623.47 914.01 1666.55 913.712 1714.39 904.25 C 1734.49 900.275 1779.19 883.812 1798.3 874.356 C 1803.56 870.393 1814.62 864.75 1820.83 861.895 C 1816.42 867.205 1811.8 872.636 1807.53 878.033 C 1805.74 882.926 1786.34 901.326 1781.86 905.416 C 1657.85 1018.47 1456.16 1026.62 1336.25 902.783 C 1287.01 851.923 1260.63 796.283 1181.26 790.42 C 1183.74 791.373 1186.19 792.372 1188.63 793.418 C 1215.73 805.177 1223.32 830.156 1241.3 850.731 C 1243.75 853.527 1253.19 857.117 1257.02 859.565 C 1280.97 874.853 1287.92 888.31 1297.67 913.136 C 1248.22 858.665 1181.78 887.162 1127.67 834.541 C 1113.17 820.439 1104.5 807.014 1093.41 790.477 C 1038.5 781.496 980.744 763.37 941.867 720.501 C 927.295 704.432 916.927 679.765 935.054 659.009 C 939.313 654.132 953.989 649.729 960.044 645.95 C 980.221 633.355 999.618 619.189 1019.61 606.285 C 1074.11 571.9 1127.55 562.036 1191.11 566.742 C 1198.65 561.528 1211.78 551.852 1219.36 547.855 C 1264.26 523.635 1320.99 521.078 1369.86 533.945 C 1420.02 547.151 1465.82 562.717 1516.79 539.737 C 1529.07 534.205 1542.44 524.856 1554.84 517.98 C 1549.84 528.081 1546.64 540.016 1541.53 549.969 C 1522.12 587.8 1502.4 609.165 1464.8 627.847 C 1475.01 626.247 1488.18 624.718 1497.99 621.22 C 1594.12 586.864 1677.55 503.458 1676.39 396.001 C 1675.95 354.972 1657.19 310.968 1627.3 282.826 C 1632.32 283.715 1637.32 284.692 1642.3 285.757 C 1674.51 292.639 1709.63 315.065 1729.72 341.088 C 1736.65 350.066 1743.89 362.573 1750.3 372.439 C 1748.76 364.453 1748.49 355.988 1746.63 348.102 C 1742.7 331.426 1738.26 313.83 1731.87 298.016 C 1710.63 244.848 1669 202.386 1616.26 180.098 C 1548.12 151.331 1469.82 156.814 1402.22 184.411 z"/>
<path transform="translate(0,0)" fill="rgb(16,49,76)" d="M 1798.3 874.356 C 1803.56 870.393 1814.62 864.75 1820.83 861.895 C 1816.42 867.205 1811.8 872.636 1807.53 878.033 L 1807.29 873.969 L 1805.74 872.878 C 1802.64 874.27 1801.75 874.551 1798.3 874.356 z"/>
<path transform="translate(0,0)" fill="rgb(41,114,184)" d="M 1530.81 130.02 C 1546.92 124.953 1563.52 119.538 1580.07 116.025 C 1646.13 101.999 1715.99 108.828 1776.42 139.809 C 1826.1 165.283 1869.47 210.656 1891.74 262.083 C 1894.04 265.938 1895.22 269.771 1896.7 273.976 C 1900.2 281.343 1904.04 298.72 1905.95 307.1 C 1916.76 354.512 1919.3 406.837 1905.63 454.006 C 1904.95 459.657 1900.27 473.341 1898.45 478.772 C 1885.62 517.036 1855.45 560.585 1824.24 586.926 C 1861.8 523.883 1870.65 441.957 1852.89 371.245 C 1847.75 350.769 1838.96 329.811 1830.45 310.563 L 1828.49 312.539 C 1849.21 390.983 1839.79 476.702 1798.76 547.212 C 1770.69 596.142 1729.48 636.239 1679.8 662.967 C 1675.35 665.361 1643.61 678.085 1639.9 678.03 L 1639.62 677.5 C 1644.35 676.965 1655.8 670.722 1660 668.228 C 1691.34 649.636 1719.79 624.656 1740.69 594.697 C 1747.33 585.2 1753.46 575.36 1759.06 565.217 C 1742.93 579.534 1731.34 593.701 1713.97 607.876 C 1674.97 639.711 1597.13 672.74 1547.13 672.094 C 1543.14 671.688 1537.29 671.901 1533.14 671.926 C 1533.15 669.266 1533.42 666.888 1533.68 664.251 C 1591.96 643.315 1642.8 611.284 1678.25 559.122 C 1681.33 554.577 1693.85 525.33 1691.86 521.09 L 1691.02 520.966 C 1688.64 526.377 1688.09 527.673 1684.37 532.175 L 1682.58 532.188 C 1682.93 530.709 1691.59 517.294 1693.2 513.612 C 1701.98 493.426 1708.88 473.073 1712.28 451.324 C 1711.85 432.838 1713.32 386.787 1700.75 371.849 L 1699.95 372.558 L 1699.93 379.432 C 1698.1 366.934 1695.39 354.582 1691.81 342.469 C 1732.89 373.159 1749.63 436.07 1745.85 485.004 C 1744.93 496.896 1743.01 509.125 1741.3 520.951 C 1754.69 496.731 1764.56 470.721 1770.59 443.709 C 1785.67 375.472 1772.92 307.945 1735.4 249.185 C 1729.77 244.527 1716.02 220.73 1707.36 212 C 1673.74 177.628 1631.06 153.492 1584.28 142.394 C 1571.04 139.114 1556.21 136.829 1542.66 134.079 L 1532.89 134.149 L 1530.81 130.02 z"/>
<path transform="translate(0,0)" fill="rgb(50,172,171)" d="M 1530.81 130.02 C 1546.92 124.953 1563.52 119.538 1580.07 116.025 C 1646.13 101.999 1715.99 108.828 1776.42 139.809 C 1826.1 165.283 1869.47 210.656 1891.74 262.083 C 1894.04 265.938 1895.22 269.771 1896.7 273.976 C 1900.2 281.343 1904.04 298.72 1905.95 307.1 C 1916.76 354.512 1919.3 406.837 1905.63 454.006 C 1903.64 451.205 1903.71 442.667 1903.57 438.832 C 1902.51 410.58 1901.26 389.509 1893.11 361.854 C 1881.19 321.312 1858.84 284.607 1828.29 255.406 C 1824.02 251.349 1814.19 240.133 1808.69 241.85 C 1808.25 243.988 1808.24 245.324 1806.88 246.909 C 1804.62 245.147 1804.41 243.871 1803.48 241.227 C 1752.16 171.017 1672.05 136.471 1586.48 133.529 C 1571.49 133.013 1557.7 132.355 1542.66 134.079 L 1532.89 134.149 L 1530.81 130.02 z"/>
<path transform="translate(0,0)" fill="rgb(146,217,220)" d="M 1530.81 130.02 C 1546.92 124.953 1563.52 119.538 1580.07 116.025 C 1646.13 101.999 1715.99 108.828 1776.42 139.809 C 1826.1 165.283 1869.47 210.656 1891.74 262.083 L 1889.1 264.971 C 1887.54 261.442 1880.59 251.113 1878.1 247.473 C 1842.28 194.602 1786.8 158.247 1724.03 146.5 C 1759.07 168.757 1785.87 198.694 1804.34 236.453 C 1805.37 238.557 1804.45 239.254 1803.48 241.227 C 1752.16 171.017 1672.05 136.471 1586.48 133.529 C 1571.49 133.013 1557.7 132.355 1542.66 134.079 L 1532.89 134.149 L 1530.81 130.02 z"/>
<path transform="translate(0,0)" fill="rgb(48,166,178)" d="M 1891.74 262.083 C 1894.04 265.938 1895.22 269.771 1896.7 273.976 L 1894.46 274.762 C 1890.81 272.638 1890.08 268.793 1889.1 264.971 L 1891.74 262.083 z"/>
<path transform="translate(0,0)" fill="url(#Gradient8)" d="M 1735.4 249.185 C 1743.19 251.165 1759.17 277.998 1763.96 286.071 C 1795.9 339.297 1805.1 403.131 1789.49 463.211 C 1773 526.554 1726.66 582.123 1670.64 614.91 C 1659.12 621.582 1647.22 627.58 1635 632.871 C 1641.27 625.662 1659.85 613.728 1668.57 605.883 C 1715.48 563.646 1718.84 514.445 1714.31 455.647 C 1714.19 453.407 1714.29 453.502 1713.23 451.484 L 1712.28 451.324 C 1711.85 432.838 1713.32 386.787 1700.75 371.849 L 1699.95 372.558 L 1699.93 379.432 C 1698.1 366.934 1695.39 354.582 1691.81 342.469 C 1732.89 373.159 1749.63 436.07 1745.85 485.004 C 1744.93 496.896 1743.01 509.125 1741.3 520.951 C 1754.69 496.731 1764.56 470.721 1770.59 443.709 C 1785.67 375.472 1772.92 307.945 1735.4 249.185 z"/>
<path transform="translate(0,0)" fill="rgb(15,71,117)" d="M 1823.98 296.789 C 1826.76 301.787 1828.28 305.361 1830.45 310.563 L 1828.49 312.539 C 1826.32 306.511 1825.41 302.967 1823.98 296.789 z"/>
<path transform="translate(0,0)" fill="rgb(50,172,171)" d="M 1973.51 461.204 L 1974.35 457.022 L 1975.37 456.506 C 1976.32 462.282 1976.35 473.21 1975.94 479.173 C 1977.13 523.487 1971.23 588.937 1949.48 627.838 C 1947.01 641.412 1939.83 653.496 1933.54 665.707 C 1847.91 832.076 1612.16 928.104 1463.12 781.913 C 1454.35 773.305 1446.14 763.747 1438.17 754.175 C 1443.54 757.867 1449.11 761.441 1454.41 765.17 C 1545.5 829.214 1656.33 842.959 1755.66 784.33 L 1755.45 783.749 C 1730.38 789.635 1705.61 797.275 1679.81 799.699 C 1620.44 805.279 1561.38 790.533 1510.78 759.09 C 1507.74 757.197 1504.75 755.226 1501.82 753.179 C 1514.7 756.884 1526.35 761.738 1539.43 765.292 C 1572.87 774.379 1620.21 776.779 1654.37 769.188 L 1655.19 767.141 C 1641.49 767.234 1625.29 764.702 1611.8 762.403 C 1561.65 753.857 1522.58 736.103 1482.1 705.549 C 1489.85 706.296 1500.47 707.346 1507.84 708.978 C 1531.38 712.843 1577.78 712.627 1602.13 710.883 C 1712.47 702.982 1794.28 662.142 1866.29 578.746 C 1853.33 610.851 1805.56 663.345 1777.23 683.835 C 1771.34 688.097 1749.94 702.09 1747.34 705.471 C 1753.79 703.13 1760.5 700.341 1766.84 697.66 C 1853.48 660.367 1922.2 590.812 1958.44 503.727 C 1959.35 496.743 1970.77 471.626 1973.51 461.204 z"/>
<path transform="translate(0,0)" fill="rgb(30,134,160)" d="M 1791.68 767.05 C 1795.68 765.819 1799.78 764.184 1803.62 762.315 C 1854.72 737.387 1899.77 699.513 1932.19 652.732 C 1938.22 644.022 1943.16 636.042 1949.48 627.838 C 1947.01 641.412 1939.83 653.496 1933.54 665.707 C 1847.91 832.076 1612.16 928.104 1463.12 781.913 C 1454.35 773.305 1446.14 763.747 1438.17 754.175 C 1443.54 757.867 1449.11 761.441 1454.41 765.17 C 1545.5 829.214 1656.33 842.959 1755.66 784.33 L 1755.45 783.749 C 1730.38 789.635 1705.61 797.275 1679.81 799.699 C 1620.44 805.279 1561.38 790.533 1510.78 759.09 C 1507.74 757.197 1504.75 755.226 1501.82 753.179 C 1514.7 756.884 1526.35 761.738 1539.43 765.292 C 1572.87 774.379 1620.21 776.779 1654.37 769.188 L 1655.19 767.141 C 1663.53 765.988 1675.37 767.261 1684.33 766.503 C 1754.81 760.537 1819.11 730.646 1871.86 684.044 C 1881.94 675.14 1892.25 663.325 1901.44 653.461 C 1883.92 685.427 1853.3 720.766 1825.21 743.61 C 1816.51 750.688 1801.31 760.553 1791.68 767.05 z"/>
<path transform="translate(0,0)" fill="rgb(146,217,220)" d="M 1958.44 503.727 L 1960.34 504.288 C 1960.95 508.872 1957.48 518.756 1955.94 523.354 C 1945.32 556.053 1929.25 586.722 1908.41 614.064 C 1858.47 679.21 1781.93 721.105 1700.84 732.538 C 1650.55 739.629 1584.42 735.993 1536.18 720.717 C 1530.98 720.488 1520.51 716.426 1515.61 714.512 L 1512.64 714.141 C 1511.03 711.126 1510.71 710.855 1507.84 708.978 C 1531.38 712.843 1577.78 712.627 1602.13 710.883 C 1712.47 702.982 1794.28 662.142 1866.29 578.746 C 1853.33 610.851 1805.56 663.345 1777.23 683.835 C 1771.34 688.097 1749.94 702.09 1747.34 705.471 C 1753.79 703.13 1760.5 700.341 1766.84 697.66 C 1853.48 660.367 1922.2 590.812 1958.44 503.727 z"/>
<path transform="translate(0,0)" fill="url(#Gradient7)" d="M 1507.84 708.978 C 1531.38 712.843 1577.78 712.627 1602.13 710.883 C 1712.47 702.982 1794.28 662.142 1866.29 578.746 C 1853.33 610.851 1805.56 663.345 1777.23 683.835 C 1771.34 688.097 1749.94 702.09 1747.34 705.471 C 1704.15 730.601 1589.09 728.117 1540.09 718.527 L 1536.18 720.717 C 1530.98 720.488 1520.51 716.426 1515.61 714.512 L 1512.64 714.141 C 1511.03 711.126 1510.71 710.855 1507.84 708.978 z"/>
<path transform="translate(0,0)" fill="rgb(146,217,220)" d="M 1515.61 714.512 C 1521.99 713.218 1533.23 717.333 1540.09 718.527 L 1536.18 720.717 C 1530.98 720.488 1520.51 716.426 1515.61 714.512 z"/>
<path transform="translate(0,0)" fill="rgb(57,127,185)" d="M 1973.51 461.204 L 1974.35 457.022 L 1975.37 456.506 C 1976.32 462.282 1976.35 473.21 1975.94 479.173 C 1974.9 473.555 1976 465.654 1973.51 461.204 z"/>
<path transform="translate(0,0)" fill="rgb(41,114,184)" d="M 956.892 670.63 C 986.787 652.245 1017.13 630.619 1047.66 614.327 C 1128.52 571.18 1218.62 580.914 1299.12 618.802 C 1332.49 634.508 1383.68 654.193 1420.36 658.865 C 1424.71 659.22 1428.86 659.537 1433.19 660.154 L 1431.89 662.11 C 1430.77 662.29 1429.3 662.296 1428.63 662.92 C 1427.91 673.214 1423.47 679.575 1416.88 686.924 C 1408.88 670.858 1412 675.053 1408.23 660.549 L 1408.08 659.992 L 1404.16 659.855 C 1402.81 661.172 1402.68 660.607 1402.56 662.383 C 1402.09 669.504 1399.43 675.301 1395.44 681.093 C 1393.09 684.263 1393.81 684.381 1390.74 685.149 C 1387.61 682.917 1384.44 674.321 1382.57 670.214 C 1382.85 665.463 1383.07 663.847 1384.21 659.247 L 1382.69 657.933 L 1375.92 656.418 C 1373.93 663.209 1377.25 673.052 1369.93 680.123 C 1365.87 680.605 1365.27 678.885 1363.61 675.083 C 1361.07 665.107 1356.55 667.515 1357.96 651.978 L 1350.82 650.204 C 1346.99 657.433 1356.31 662.234 1341.18 678.351 C 1338.29 667.48 1336.36 665.319 1329.88 656.265 C 1329.85 651.856 1331.25 653.66 1334.01 648.648 C 1332.5 645.631 1332.43 646.33 1328.83 644.465 C 1325.3 644.027 1321.53 642.084 1318.23 640.603 C 1314.51 638.628 1312.1 638.086 1308.04 636.954 C 1298.05 635.032 1297.2 634.62 1288 630.407 L 1280.93 627.924 L 1275.78 625.245 C 1271.98 627.567 1273.52 630.047 1269.31 635.275 C 1262.61 629.357 1259.91 621.348 1251.64 616.878 L 1250.8 616.434 L 1245.99 614.277 C 1242.58 618.082 1244.54 620.078 1241.81 625.399 C 1240.91 627.047 1239.62 630.001 1238.14 630.836 C 1233.19 631.918 1234.08 632.78 1230.89 634.272 L 1231.3 637.842 C 1232.78 649.401 1231.19 655.574 1225.43 665.183 C 1223.68 660.623 1221.77 654.991 1219.24 650.924 L 1217.8 650.516 C 1211.95 643.948 1193.21 616.017 1191.4 608.792 C 1190.22 607.374 1189.5 605.125 1188.76 603.328 C 1185.08 602.513 1184.76 601.72 1182.13 603.181 C 1180.42 611.281 1181.5 613.425 1177.46 621.014 C 1175.94 623.499 1173.97 625.838 1172.16 628.133 C 1169.58 623.196 1166.57 619.124 1163.92 613.874 C 1161.76 609.538 1157.98 607.675 1154.84 601.679 L 1149.21 602.405 C 1150.16 609.797 1150.5 619.28 1145.68 625.477 C 1145.32 625.937 1144.95 626.391 1144.57 626.838 L 1143.77 627.915 C 1138.04 628.938 1137.8 610.577 1123.83 604.759 L 1121.68 605.761 C 1119.89 614.589 1121.1 621.702 1116.34 628.967 C 1112.58 630.08 1113.74 629.182 1111.78 632.141 C 1113.55 635.117 1114.03 635.699 1116.32 638.212 C 1121.13 643.94 1124.44 648.07 1127.55 655.086 C 1135.2 670.788 1131.14 679.045 1123.67 693.356 C 1120.11 663.817 1111.33 645.705 1082.54 633.346 C 1096.8 652.27 1107.76 674.348 1104.24 698.704 C 1101.64 716.713 1090.4 736.031 1074.05 744.678 C 1064.61 753.665 1046.18 755.355 1034.04 752.964 C 1010.92 748.411 940.711 711.106 947.256 682.351 C 949.632 677.794 950.255 676.703 953.639 672.89 C 954.33 672.07 955.898 671.247 956.892 670.63 z"/>
<path transform="translate(0,0)" fill="rgb(108,190,240)" d="M 956.892 670.63 C 986.787 652.245 1017.13 630.619 1047.66 614.327 C 1128.52 571.18 1218.62 580.914 1299.12 618.802 C 1332.49 634.508 1383.68 654.193 1420.36 658.865 C 1424.71 659.22 1428.86 659.537 1433.19 660.154 L 1431.89 662.11 C 1430.77 662.29 1429.3 662.296 1428.63 662.92 C 1427.91 673.214 1423.47 679.575 1416.88 686.924 C 1408.88 670.858 1412 675.053 1408.23 660.549 L 1408.08 659.992 L 1404.16 659.855 C 1402.81 661.172 1402.68 660.607 1402.56 662.383 C 1402.09 669.504 1399.43 675.301 1395.44 681.093 C 1393.09 684.263 1393.81 684.381 1390.74 685.149 C 1387.61 682.917 1384.44 674.321 1382.57 670.214 C 1382.85 665.463 1383.07 663.847 1384.21 659.247 L 1382.69 657.933 L 1375.92 656.418 C 1373.93 663.209 1377.25 673.052 1369.93 680.123 C 1365.87 680.605 1365.27 678.885 1363.61 675.083 C 1361.07 665.107 1356.55 667.515 1357.96 651.978 L 1350.82 650.204 C 1346.99 657.433 1356.31 662.234 1341.18 678.351 C 1338.29 667.48 1336.36 665.319 1329.88 656.265 C 1329.85 651.856 1331.25 653.66 1334.01 648.648 C 1332.5 645.631 1332.43 646.33 1328.83 644.465 C 1325.3 644.027 1321.53 642.084 1318.23 640.603 C 1314.51 638.628 1312.1 638.086 1308.04 636.954 C 1298.05 635.032 1297.2 634.62 1288 630.407 L 1280.93 627.924 L 1275.78 625.245 C 1271.98 627.567 1273.52 630.047 1269.31 635.275 C 1262.61 629.357 1259.91 621.348 1251.64 616.878 L 1250.8 616.434 L 1245.99 614.277 C 1242.58 618.082 1244.54 620.078 1241.81 625.399 C 1240.91 627.047 1239.62 630.001 1238.14 630.836 C 1233.19 631.918 1234.08 632.78 1230.89 634.272 L 1231.3 637.842 C 1232.78 649.401 1231.19 655.574 1225.43 665.183 C 1223.68 660.623 1221.77 654.991 1219.24 650.924 L 1217.8 650.516 C 1211.95 643.948 1193.21 616.017 1191.4 608.792 C 1190.22 607.374 1189.5 605.125 1188.76 603.328 C 1185.08 602.513 1184.76 601.72 1182.13 603.181 C 1180.42 611.281 1181.5 613.425 1177.46 621.014 C 1175.94 623.499 1173.97 625.838 1172.16 628.133 C 1169.58 623.196 1166.57 619.124 1163.92 613.874 C 1161.76 609.538 1157.98 607.675 1154.84 601.679 L 1149.21 602.405 C 1150.16 609.797 1150.5 619.28 1145.68 625.477 C 1145.32 625.937 1144.95 626.391 1144.57 626.838 L 1143.77 627.915 C 1138.04 628.938 1137.8 610.577 1123.83 604.759 L 1121.68 605.761 C 1119.89 614.589 1121.1 621.702 1116.34 628.967 C 1112.58 630.08 1113.74 629.182 1111.78 632.141 L 1111.25 632.299 C 1109.34 628.631 1108.15 626.255 1105.73 622.915 C 1105.88 619.314 1105.44 613.162 1105.29 609.369 L 1104.71 608.551 C 1099.14 609.687 1099.22 610.162 1093.04 610.057 C 1090.73 612.48 1090.35 612.945 1087.07 614.052 C 1043.99 629.504 1009.42 648.084 972.488 674.675 C 967.538 678.238 961.88 673.443 956.892 670.63 z"/>
<path transform="translate(0,0)" fill="rgb(15,71,117)" d="M 1188.76 603.328 C 1190.69 603.657 1195.93 604.669 1197.58 604.633 C 1200.98 605.125 1207.1 606.226 1210.28 605.917 C 1214.19 606.774 1220.15 607.847 1223.62 609.459 C 1229.88 609.071 1232.45 610.61 1238.32 612.887 C 1239.96 613.132 1244.77 613.695 1245.99 614.277 C 1242.58 618.082 1244.54 620.078 1241.81 625.399 C 1240.91 627.047 1239.62 630.001 1238.14 630.836 C 1233.19 631.918 1234.08 632.78 1230.89 634.272 L 1231.3 637.842 C 1232.78 649.401 1231.19 655.574 1225.43 665.183 C 1223.68 660.623 1221.77 654.991 1219.24 650.924 L 1217.8 650.516 C 1211.95 643.948 1193.21 616.017 1191.4 608.792 C 1190.22 607.374 1189.5 605.125 1188.76 603.328 z"/>
<path transform="translate(0,0)" fill="rgb(57,127,185)" d="M 1210.32 634.938 C 1211.79 632.364 1214.57 628.66 1216.36 626.124 C 1217.62 630.276 1217.61 629.278 1221.48 632.528 C 1223.99 635.938 1226.9 640.977 1230.72 641.882 L 1231.3 637.842 C 1232.78 649.401 1231.19 655.574 1225.43 665.183 C 1223.68 660.623 1221.77 654.991 1219.24 650.924 C 1219.15 650.187 1218.05 647.606 1217.71 646.749 C 1215.14 643.862 1211.19 639.759 1209.4 636.509 L 1210.32 634.938 z"/>
<path transform="translate(0,0)" fill="rgb(41,114,184)" d="M 1231.3 637.842 C 1232.78 649.401 1231.19 655.574 1225.43 665.183 C 1223.68 660.623 1221.77 654.991 1219.24 650.924 C 1219.15 650.187 1218.05 647.606 1217.71 646.749 C 1222.54 643.449 1224.14 644.122 1229.86 644.907 L 1230.59 645.014 L 1230.72 641.882 L 1231.3 637.842 z"/>
<path transform="translate(0,0)" fill="rgb(64,141,199)" d="M 1210.32 634.938 C 1211.79 632.364 1214.57 628.66 1216.36 626.124 C 1217.62 630.276 1217.61 629.278 1221.48 632.528 C 1214.48 633.508 1216.06 638.311 1210.32 634.938 z"/>
<path transform="translate(0,0)" fill="rgb(75,157,213)" d="M 1188.76 603.328 C 1190.69 603.657 1195.93 604.669 1197.58 604.633 C 1200.98 605.125 1207.1 606.226 1210.28 605.917 C 1211.39 616.258 1210.78 619.165 1205.04 628.3 C 1201.9 623.006 1199.88 619.907 1196.18 614.94 C 1195.13 612.491 1193.23 610.778 1191.4 608.792 C 1190.22 607.374 1189.5 605.125 1188.76 603.328 z"/>
<path transform="translate(0,0)" fill="rgb(64,141,199)" d="M 1188.76 603.328 C 1190.69 603.657 1195.93 604.669 1197.58 604.633 L 1201.59 606.442 L 1201.95 608.219 L 1196.18 614.94 C 1195.13 612.491 1193.23 610.778 1191.4 608.792 C 1190.22 607.374 1189.5 605.125 1188.76 603.328 z"/>
<path transform="translate(0,0)" fill="rgb(64,141,199)" d="M 1223.62 609.459 C 1229.88 609.071 1232.45 610.61 1238.32 612.887 C 1239.96 613.132 1244.77 613.695 1245.99 614.277 C 1242.58 618.082 1244.54 620.078 1241.81 625.399 C 1240.91 627.047 1239.62 630.001 1238.14 630.836 C 1233.32 621.737 1230.35 617.111 1223.62 609.459 z"/>
<path transform="translate(0,0)" fill="rgb(89,167,225)" d="M 1238.32 612.887 C 1239.96 613.132 1244.77 613.695 1245.99 614.277 C 1242.58 618.082 1244.54 620.078 1241.81 625.399 C 1238.48 621.516 1238.79 617.981 1238.32 612.887 z"/>
<path transform="translate(0,0)" fill="rgb(89,167,225)" d="M 1216.36 626.124 C 1217.29 623.379 1218.02 621.28 1218.63 618.411 L 1220.06 618.132 C 1224.5 621.214 1229.26 629.16 1230.89 634.272 L 1231.3 637.842 L 1230.72 641.882 C 1226.9 640.977 1223.99 635.938 1221.48 632.528 C 1217.61 629.278 1217.62 630.276 1216.36 626.124 z"/>
<path transform="translate(0,0)" fill="rgb(75,157,213)" d="M 1328.83 644.465 C 1335.96 644.511 1342.79 648.769 1350.82 650.204 C 1346.99 657.433 1356.31 662.234 1341.18 678.351 C 1338.29 667.48 1336.36 665.319 1329.88 656.265 C 1329.85 651.856 1331.25 653.66 1334.01 648.648 C 1332.5 645.631 1332.43 646.33 1328.83 644.465 z"/>
<path transform="translate(0,0)" fill="rgb(64,141,199)" d="M 1382.69 657.933 C 1386.09 658.041 1401.78 658.921 1404.16 659.855 C 1402.81 661.172 1402.68 660.607 1402.56 662.383 C 1402.09 669.504 1399.43 675.301 1395.44 681.093 C 1393.09 684.263 1393.81 684.381 1390.74 685.149 C 1387.61 682.917 1384.44 674.321 1382.57 670.214 C 1382.85 665.463 1383.07 663.847 1384.21 659.247 L 1382.69 657.933 z"/>
<path transform="translate(0,0)" fill="rgb(41,114,184)" d="M 1384.21 659.247 C 1385.19 665.861 1389.77 677.208 1395.44 681.093 C 1393.09 684.263 1393.81 684.381 1390.74 685.149 C 1387.61 682.917 1384.44 674.321 1382.57 670.214 C 1382.85 665.463 1383.07 663.847 1384.21 659.247 z"/>
<path transform="translate(0,0)" fill="rgb(64,141,199)" d="M 1357.96 651.978 L 1363.67 653.483 C 1365.92 653.99 1374.23 655.714 1375.92 656.418 C 1373.93 663.209 1377.25 673.052 1369.93 680.123 C 1365.87 680.605 1365.27 678.885 1363.61 675.083 C 1361.07 665.107 1356.55 667.515 1357.96 651.978 z"/>
<path transform="translate(0,0)" fill="rgb(57,127,185)" d="M 1357.96 651.978 L 1363.67 653.483 C 1367.32 662.495 1366.84 665.826 1363.61 675.083 C 1361.07 665.107 1356.55 667.515 1357.96 651.978 z"/>
<path transform="translate(0,0)" fill="rgb(64,141,199)" d="M 1420.36 658.865 C 1424.71 659.22 1428.86 659.537 1433.19 660.154 L 1431.89 662.11 C 1430.77 662.29 1429.3 662.296 1428.63 662.92 C 1427.91 673.214 1423.47 679.575 1416.88 686.924 C 1408.88 670.858 1412 675.053 1408.23 660.549 L 1408.08 659.992 C 1414.42 660.862 1419.04 661.557 1425.49 661.6 L 1425.75 660.704 L 1420.36 658.865 z"/>
<path transform="translate(0,0)" fill="rgb(57,127,185)" d="M 1154.84 601.679 C 1159.77 601.821 1165.16 602.223 1169.39 605.091 C 1178.77 610.859 1173.47 615.39 1177.46 621.014 C 1175.94 623.499 1173.97 625.838 1172.16 628.133 C 1169.58 623.196 1166.57 619.124 1163.92 613.874 C 1161.76 609.538 1157.98 607.675 1154.84 601.679 z"/>
<path transform="translate(0,0)" fill="rgb(64,141,199)" d="M 1154.84 601.679 C 1159.77 601.821 1165.16 602.223 1169.39 605.091 L 1167.49 606.673 C 1167.75 609.446 1168.68 611.052 1169.82 613.581 L 1168.75 614.639 C 1166.97 614.436 1165.67 614.324 1163.92 613.874 C 1161.76 609.538 1157.98 607.675 1154.84 601.679 z"/>
<path transform="translate(0,0)" fill="rgb(57,127,185)" d="M 1250.8 616.434 C 1261.56 618.713 1265.76 620.882 1275.78 625.245 C 1271.98 627.567 1273.52 630.047 1269.31 635.275 C 1262.61 629.357 1259.91 621.348 1251.64 616.878 L 1250.8 616.434 z"/>
<path transform="translate(0,0)" fill="rgb(57,127,185)" d="M 1123.83 604.759 L 1128.31 604.774 C 1154.42 618.806 1137.69 617.699 1144.57 626.838 L 1143.77 627.915 C 1138.04 628.938 1137.8 610.577 1123.83 604.759 z"/>
<path transform="translate(0,0)" fill="rgb(28,83,142)" d="M 1105.29 609.369 C 1117.71 619.739 1109.47 622.708 1116.34 628.967 C 1112.58 630.08 1113.74 629.182 1111.78 632.141 L 1111.25 632.299 C 1109.34 628.631 1108.15 626.255 1105.73 622.915 C 1105.88 619.314 1105.44 613.162 1105.29 609.369 z"/>
<path transform="translate(0,0)" fill="rgb(28,83,142)" d="M 1083.59 675.124 C 1096.83 709.054 1071.98 736.963 1072.86 743.983 L 1074.05 744.678 C 1064.61 753.665 1046.18 755.355 1034.04 752.964 C 1010.92 748.411 940.711 711.106 947.256 682.351 C 948.295 692.46 955.344 696.724 963.136 703.414 C 968.99 708.81 985.842 717.563 993.423 720.879 C 1020.87 732.888 1059.35 735.046 1076.87 705.641 C 1078.77 702.443 1080.25 696.088 1081.26 692.28 C 1083.22 686.202 1080.91 680.456 1083.59 675.124 z"/>
<path transform="translate(0,0)" fill="rgb(15,71,117)" d="M 1093.04 610.057 C 1099.22 610.162 1099.14 609.687 1104.71 608.551 L 1105.29 609.369 C 1105.44 613.162 1105.88 619.314 1105.73 622.915 C 1103.6 625.825 1100.77 629.939 1098.38 632.452 C 1097.51 633.763 1096.55 635.086 1095.64 636.376 L 1094.24 636.608 L 1094.46 633.9 C 1090.42 628.088 1092.33 621.541 1087.07 614.052 C 1090.35 612.945 1090.73 612.48 1093.04 610.057 z"/>
<path transform="translate(0,0)" fill="rgb(89,167,225)" d="M 1087.07 614.052 C 1090.35 612.945 1090.73 612.48 1093.04 610.057 C 1096.96 620.783 1101.15 618.685 1095.4 631.812 C 1095.09 632.51 1094.78 633.206 1094.46 633.9 C 1090.42 628.088 1092.33 621.541 1087.07 614.052 z"/>
<path transform="translate(0,0)" fill="rgb(89,167,225)" d="M 953.639 672.89 C 954.932 675.946 953.779 680.365 953.226 683.795 C 954.47 686.224 955.827 688.897 957.442 691.125 C 959.548 694.03 967.61 700.177 967.822 703.273 C 965.585 704.048 965.499 703.999 963.136 703.414 C 955.344 696.724 948.295 692.46 947.256 682.351 C 949.632 677.794 950.255 676.703 953.639 672.89 z"/>
<path transform="translate(0,0)" fill="rgb(57,127,185)" d="M 1105.73 622.915 C 1108.15 626.255 1109.34 628.631 1111.25 632.299 C 1108.95 635.996 1107.95 638.232 1103.99 639.317 C 1100.19 637.3 1100.87 636.858 1098.38 632.452 C 1100.77 629.939 1103.6 625.825 1105.73 622.915 z"/>
<path transform="translate(0,0)" fill="rgb(75,157,213)" d="M 1127.55 655.086 L 1126.07 655.545 C 1120.4 653.371 1113.7 644.647 1116.32 638.212 C 1121.13 643.94 1124.44 648.07 1127.55 655.086 z"/>
<path transform="translate(0,0)" fill="rgb(15,71,117)" d="M 1081.26 692.28 C 1080.86 686.987 1080.46 674.837 1081.56 669.958 L 1082.59 670.226 L 1083.59 675.124 C 1080.91 680.456 1083.22 686.202 1081.26 692.28 z"/>
<path transform="translate(0,0)" fill="rgb(9,62,107)" d="M 1009.81 658.579 C 1017.79 655.899 1026.59 657.751 1032.81 663.418 C 1039.03 669.085 1041.7 677.677 1039.77 685.868 C 1037.84 694.059 1031.63 700.564 1023.54 702.865 C 1011.42 706.308 998.775 699.453 995.047 687.424 C 991.319 675.395 997.874 662.589 1009.81 658.579 z"/>
<path transform="translate(0,0)" fill="rgb(254,255,255)" d="M 1020.33 666.253 C 1023.95 665.427 1027.6 667.537 1028.69 671.089 C 1029.78 674.64 1027.94 678.431 1024.48 679.779 C 1022 680.743 1019.19 680.241 1017.2 678.478 C 1015.21 676.714 1014.37 673.986 1015.03 671.41 C 1015.69 668.834 1017.74 666.843 1020.33 666.253 z"/>
<path transform="translate(0,0)" fill="rgb(30,134,160)" d="M 1419.03 853.979 C 1410.07 826.51 1389.31 792.912 1367.23 773.332 C 1365.76 772.025 1362.31 770.05 1361.61 768.393 C 1368.48 767.977 1390.16 778.251 1396.84 782.466 C 1402.73 785.938 1406.18 787.97 1411.58 792.232 C 1444.29 816.538 1450.66 833.443 1478.4 861.425 C 1532.47 915.966 1614.54 943.64 1690.57 932.429 C 1695.1 931.735 1699.61 930.973 1704.11 930.142 C 1691.66 938.34 1684.9 938.801 1673.83 944.581 C 1661.23 953.018 1629.91 960.527 1614.46 963.769 C 1536.61 980.185 1455.44 963.189 1390.71 916.918 C 1346.61 884.823 1316.74 837.527 1276.46 801.653 C 1268.83 794.858 1253.3 786.219 1244.08 780.171 C 1268.06 786.374 1304.34 803.14 1322.29 819.905 C 1363.88 858.74 1386.05 891.273 1443.53 910.276 C 1432.5 903.52 1429.58 903.301 1418.42 893.977 C 1395.23 874.595 1380.38 852.763 1361.89 829.654 C 1343.5 806.686 1324.41 789.027 1300.1 772.555 C 1336.63 783.947 1370.45 799.046 1396.87 827.479 C 1404.73 835.936 1411.57 845.101 1419.03 853.979 z"/>
<path transform="translate(0,0)" fill="url(#Gradient6)" d="M 1407.89 794.345 L 1411.58 792.232 C 1444.29 816.538 1450.66 833.443 1478.4 861.425 C 1532.47 915.966 1614.54 943.64 1690.57 932.429 C 1695.1 931.735 1699.61 930.973 1704.11 930.142 C 1691.66 938.34 1684.9 938.801 1673.83 944.581 C 1670.88 943.275 1635.61 945.723 1627.95 945.541 C 1556.1 943.824 1501.95 915.173 1458.59 858.181 C 1441.64 835.902 1427.46 814.922 1407.89 794.345 z"/>
<path transform="translate(0,0)" fill="rgb(89,167,225)" d="M 1396.84 782.466 C 1402.73 785.938 1406.18 787.97 1411.58 792.232 L 1407.89 794.345 C 1404.76 791.918 1397.75 786.895 1395.68 783.974 L 1396.84 782.466 z"/>
<path transform="translate(0,0)" fill="rgb(30,134,160)" d="M 1226.85 570.318 C 1322.78 514.879 1393.95 586.943 1484.67 571.4 C 1489.87 570.728 1501.32 566.101 1504.88 567.196 L 1502.44 570.098 C 1496 578.524 1477.57 598.031 1467.82 601.626 C 1451.15 615.186 1417.08 623.452 1396.01 622.21 C 1372.66 620.834 1335.15 611.836 1316.12 597.991 C 1325.65 599.322 1337.18 598.813 1346.97 599.201 C 1364.9 599.912 1380.44 601.297 1398.34 599.237 C 1364.18 594.279 1326.98 574.529 1291.88 582.377 C 1263.83 588.648 1262.35 578.735 1239.22 574.621 L 1226.85 570.318 z"/>
<path transform="translate(0,0)" fill="url(#Gradient5)" d="M 1226.85 570.318 C 1322.78 514.879 1393.95 586.943 1484.67 571.4 L 1485.43 579.68 L 1474.66 584.356 C 1468.27 585.818 1454.61 589.034 1448.6 588.721 C 1391.17 585.733 1336.35 555.985 1277.85 564.437 C 1265.28 566.251 1251.58 570.853 1239.22 574.621 L 1226.85 570.318 z"/>
<path transform="translate(0,0)" fill="rgb(146,217,220)" d="M 1484.67 571.4 C 1489.87 570.728 1501.32 566.101 1504.88 567.196 L 1502.44 570.098 C 1497.62 573.958 1491.04 576.886 1485.43 579.68 L 1484.67 571.4 z"/>
<path transform="translate(0,0)" fill="url(#Gradient4)" d="M 1699.93 379.432 L 1699.95 372.558 L 1700.75 371.849 C 1713.32 386.787 1711.85 432.838 1712.28 451.324 C 1708.88 473.073 1701.98 493.426 1693.2 513.612 C 1691.59 517.294 1682.93 530.709 1682.58 532.188 C 1638.5 592.675 1599.64 610.273 1534.05 637.275 L 1530.88 634.105 C 1564.3 624.143 1622.84 577.534 1645.08 549.82 C 1687.16 497.409 1705.37 445.64 1699.93 379.432 z"/>
<path transform="translate(0,0)" fill="rgb(48,166,178)" d="M 1155.95 691.407 C 1166.27 684.257 1194.58 661.532 1205.25 676.497 C 1207.05 679.018 1209.73 686.767 1209.92 689.893 C 1213.94 704.207 1212.38 720.048 1207.53 733.97 C 1204.65 744.69 1194.22 755.064 1186.03 762.088 C 1171.17 752.171 1148.93 739.187 1133 729.478 C 1150.59 730.722 1168.08 733.058 1185.38 736.475 C 1172.14 730.094 1160.09 722.03 1146.48 716.243 C 1164.06 707.811 1175.32 707.242 1189.43 701 C 1176.02 699.518 1163.09 701.297 1149.66 702.239 L 1138.36 704.782 C 1144.64 699.59 1149.21 695.951 1155.95 691.407 z"/>
<path transform="translate(0,0)" fill="rgb(146,217,220)" d="M 1155.95 691.407 C 1166.27 684.257 1194.58 661.532 1205.25 676.497 C 1207.05 679.018 1209.73 686.767 1209.92 689.893 C 1213.94 704.207 1212.38 720.048 1207.53 733.97 L 1206.53 733.694 C 1205.47 731.31 1207.29 717.251 1207.55 713.164 C 1206.06 698.791 1202.29 688.567 1189.83 680.318 C 1176.7 684.234 1170.93 686.418 1158.97 693.016 L 1155.95 691.407 z"/>
<path transform="translate(0,0)" fill="rgb(108,190,240)" d="M 1138.36 704.782 C 1144.64 699.59 1149.21 695.951 1155.95 691.407 L 1158.97 693.016 C 1155.72 695.655 1150.82 698.635 1149.66 702.239 L 1138.36 704.782 z"/>
<path transform="translate(0,0)" fill="rgb(30,134,160)" d="M 1124.13 794.689 C 1129.1 797.128 1136.81 803.1 1141.48 806.729 C 1156.01 818.014 1164.36 822.634 1181.59 828.022 C 1168.86 819.934 1160.18 813.006 1148.31 803.883 C 1168.25 808.761 1177.15 807.923 1193.2 822.067 C 1201.32 831.074 1208.68 842.684 1215.45 852.861 C 1180.06 846.33 1141.03 828.542 1124.13 794.689 z"/>
<path transform="translate(0,0)" fill="rgb(28,83,142)" d="M 1114.78 740.059 C 1133.23 750.956 1148.59 758.384 1165.21 772.044 C 1155.38 773.238 1146.39 773.176 1136.54 773.152 C 1120 773.058 1103.54 769.014 1087.7 764.647 C 1096.7 758.435 1106.59 747.861 1114.78 740.059 z"/>
<path transform="translate(0,0)" fill="rgb(41,114,184)" d="M 1433.19 660.154 C 1437.48 660.091 1452.47 661.003 1455.37 663.668 C 1462.02 679.968 1451.44 694.794 1439.77 705.333 C 1440.72 694.459 1440.18 693.719 1440.25 684.315 C 1438.15 679.066 1434.08 667.992 1431.52 663.621 L 1428.63 662.92 C 1429.3 662.296 1430.77 662.29 1431.89 662.11 L 1433.19 660.154 z"/>
<path transform="translate(0,0)" fill="rgb(15,71,117)" d="M 1455.37 663.668 C 1462.02 679.968 1451.44 694.794 1439.77 705.333 C 1440.72 694.459 1440.18 693.719 1440.25 684.315 L 1442.95 683.746 C 1449.09 678.933 1452.1 670.738 1455.37 663.668 z"/>
<path transform="translate(0,0)" fill="rgb(15,71,117)" d="M 1241.04 648.648 C 1252.95 657.999 1253.37 694.238 1241.79 692.554 C 1231.39 678.834 1224.54 676.953 1236.44 659.569 C 1238.48 656.597 1239.96 652.14 1241.04 648.648 z"/>
<path transform="translate(0,0)" fill="rgb(41,114,184)" d="M 1270.92 654.127 C 1277.94 666.55 1281.52 675.158 1277.48 689.992 C 1277.37 690.395 1277.25 690.797 1277.14 691.198 C 1275.77 693.619 1272.7 697.29 1270.88 699.595 C 1266.45 694.578 1265.68 693.053 1263.98 686.577 C 1261.53 683.659 1258.93 680.699 1256.81 677.547 C 1264.2 669.125 1266.28 664.391 1270.92 654.127 z"/>
<path transform="translate(0,0)" fill="rgb(28,83,142)" d="M 1263.98 686.577 C 1267.78 689.019 1272.66 690.82 1277.14 691.198 C 1275.77 693.619 1272.7 697.29 1270.88 699.595 C 1266.45 694.578 1265.68 693.053 1263.98 686.577 z"/>
<path transform="translate(0,0)" fill="url(#Gradient3)" d="M 1247.98 626.818 L 1250.71 624.381 C 1259.18 626.124 1263.2 642.984 1261.32 650.731 C 1261.18 651.292 1261.03 651.85 1260.88 652.407 C 1259.8 656.848 1257.02 662 1254.98 666.204 C 1250.85 652.471 1250.04 650.516 1241.11 639.265 C 1243.32 635.66 1246.64 630.667 1247.98 626.818 z"/>
<path transform="translate(0,0)" fill="rgb(89,167,225)" d="M 1247.98 626.818 L 1250.71 624.381 C 1259.18 626.124 1263.2 642.984 1261.32 650.731 C 1261.18 651.292 1261.03 651.85 1260.88 652.407 C 1258.46 648.531 1248.45 629.932 1247.98 626.818 z"/>
<path transform="translate(0,0)" fill="rgb(89,167,225)" d="M 1308.04 636.954 C 1312.1 638.086 1314.51 638.628 1318.23 640.603 C 1319.36 645.399 1321.2 650.179 1322.22 654.711 C 1320.75 660.483 1320.29 662.641 1317.33 667.983 L 1314.46 671.491 L 1312.72 671.436 C 1310.23 668.963 1307.06 659.447 1304.67 654.665 C 1302.88 652.278 1302.33 651.51 1301.06 648.821 C 1301.06 644.435 1305.09 640.672 1308.04 636.954 z"/>
<path transform="translate(0,0)" fill="rgb(57,127,185)" d="M 1304.67 654.665 L 1308.15 651.888 C 1316.11 653.662 1312.81 664.657 1317.33 667.983 L 1314.46 671.491 L 1312.72 671.436 C 1310.23 668.963 1307.06 659.447 1304.67 654.665 z"/>
<path transform="translate(0,0)" fill="rgb(89,167,225)" d="M 1280.93 627.924 L 1288 630.407 C 1287.04 635.282 1289.98 635.111 1291.11 640.847 C 1292.45 648.019 1292.56 657.907 1288.41 664.14 L 1286.57 664.744 C 1281.2 661.367 1279.38 650.892 1274.38 647.655 C 1273.02 646.619 1273.35 646.511 1272.67 644.537 C 1273.11 640.723 1278.62 632.096 1280.93 627.924 z"/>
<path transform="translate(0,0)" fill="rgb(75,157,213)" d="M 1291.11 640.847 C 1292.45 648.019 1292.56 657.907 1288.41 664.14 L 1286.57 664.744 C 1281.2 661.367 1279.38 650.892 1274.38 647.655 C 1283.94 645.957 1281.22 647.71 1289.41 648.717 C 1291.51 646.546 1290.87 644.61 1291.11 640.847 z"/>
<path transform="translate(0,0)" fill="url(#Gradient2)" d="M 1186.47 617.722 L 1188.55 616.894 C 1197.52 622.206 1198.17 637.715 1196.8 646.961 C 1194.67 648.837 1189.7 650.401 1186.82 651.485 C 1185.32 648.826 1177.45 635.693 1178.56 633.438 C 1181.22 628.015 1185.35 624.108 1186.47 617.722 z"/>
<path transform="translate(0,0)" fill="rgb(89,167,225)" d="M 1186.47 617.722 L 1188.55 616.894 C 1197.52 622.206 1198.17 637.715 1196.8 646.961 C 1196.37 646.406 1186.6 618.74 1186.47 617.722 z"/>
<path transform="translate(0,0)" fill="url(#Gradient1)" d="M 1287.52 679.161 C 1290.24 674.805 1296.03 663.085 1300.84 662.643 L 1302.73 665.135 L 1305.47 670.986 C 1308.67 683.651 1304.59 692.813 1295.91 701.613 C 1294.01 693.648 1292.43 685.811 1287.52 679.161 z"/>
<path transform="translate(0,0)" fill="rgb(64,141,199)" d="M 1305.47 670.986 C 1305.24 673.257 1305.16 673.73 1304.38 675.871 L 1302.6 676.67 C 1298.48 674.342 1297.1 670.106 1299.39 665.777 L 1302.73 665.135 L 1305.47 670.986 z"/>
<path transform="translate(0,0)" fill="rgb(57,127,185)" d="M 1154.21 627.802 C 1155.66 624.19 1157.28 620.385 1158.43 616.687 C 1165.71 628.751 1168.69 631.365 1165.73 645.133 C 1164.04 650.229 1161.35 656.053 1159.2 661.052 C 1156.68 647.519 1155.14 645.92 1146.47 635.632 L 1154.21 627.802 z"/>
<path transform="translate(0,0)" fill="rgb(89,167,225)" d="M 1154.21 627.802 C 1155.66 624.19 1157.28 620.385 1158.43 616.687 C 1165.71 628.751 1168.69 631.365 1165.73 645.133 C 1165.35 645.101 1163.71 644.839 1163.67 644.709 C 1160.72 635.403 1162.2 634.011 1154.21 627.802 z"/>
<path transform="translate(0,0)" fill="rgb(41,114,184)" d="M 1324.21 669.843 L 1326.88 667.539 C 1331.11 668.465 1331.62 673.108 1332.94 677.061 C 1333.8 690.991 1335.75 694.01 1324.31 702.957 C 1312.81 675.399 1313.53 692.726 1323.86 670.607 L 1324.21 669.843 z"/>
<path transform="translate(0,0)" fill="rgb(57,127,185)" d="M 1324.21 669.843 L 1326.88 667.539 C 1331.11 668.465 1331.62 673.108 1332.94 677.061 C 1332.55 677.78 1331.77 678.752 1331.26 679.442 L 1329.07 678.749 C 1326.3 675.618 1325.77 673.755 1324.21 669.843 z"/>
<path transform="translate(0,0)" fill="rgb(41,114,184)" d="M 1342.51 687.189 C 1345.76 684.123 1353.69 676.336 1356.89 674.143 C 1361.4 685.078 1362.41 689.689 1359.41 701.63 L 1356.68 704.73 C 1353.8 706.027 1353.44 706.142 1350.32 705.688 C 1347.35 703.508 1348.12 704.712 1347.36 701.218 C 1345.79 696.832 1343.76 691.604 1342.51 687.189 z"/>
<path transform="translate(0,0)" fill="rgb(28,83,142)" d="M 1347.36 701.218 C 1354.56 701.704 1350.95 698.336 1359.41 701.63 L 1356.68 704.73 C 1353.8 706.027 1353.44 706.142 1350.32 705.688 C 1347.35 703.508 1348.12 704.712 1347.36 701.218 z"/>
<path transform="translate(0,0)" fill="rgb(41,114,184)" d="M 1368.86 697.503 C 1368.41 693.866 1367.53 692.319 1369.88 689.123 C 1372.38 685.715 1374.32 681.859 1378.2 679.855 C 1381.72 679.837 1380.46 679.363 1383 681.502 C 1386.12 688.334 1384.38 700.532 1379.84 706.589 C 1377.99 708.052 1377.07 708.993 1374.84 709.742 L 1372.22 708.396 C 1370.26 704.884 1369.73 701.426 1368.86 697.503 z"/>
<path transform="translate(0,0)" fill="rgb(15,71,117)" d="M 1368.86 697.503 C 1373.1 700.847 1376.35 702.448 1379.84 706.589 C 1377.99 708.052 1377.07 708.993 1374.84 709.742 L 1372.22 708.396 C 1370.26 704.884 1369.73 701.426 1368.86 697.503 z"/>
<path transform="translate(0,0)" fill="rgb(57,127,185)" d="M 1144.24 643.361 C 1149.32 651.666 1153.98 663.101 1149.98 672.767 C 1147.22 673.889 1141.29 679.15 1138.42 679.676 C 1138.81 672.802 1139.16 670.171 1137.29 663.474 L 1137.14 662.98 C 1136.11 659.08 1137.05 658.72 1138.47 654.171 L 1144.24 643.361 z"/>
<path transform="translate(0,0)" fill="rgb(28,83,142)" d="M 1137.14 662.98 C 1140.1 667.207 1143.07 668.577 1147.63 671.063 L 1149.98 672.767 C 1147.22 673.889 1141.29 679.15 1138.42 679.676 C 1138.81 672.802 1139.16 670.171 1137.29 663.474 L 1137.14 662.98 z"/>
<path transform="translate(0,0)" fill="rgb(15,71,117)" d="M 1138.47 654.171 C 1139.84 656.846 1146.21 668.894 1147.63 671.063 C 1143.07 668.577 1140.1 667.207 1137.14 662.98 C 1136.11 659.08 1137.05 658.72 1138.47 654.171 z"/>
<path transform="translate(0,0)" fill="rgb(57,127,185)" d="M 1125.92 619.226 L 1128.64 617.418 C 1133.97 618.88 1135.74 623.134 1137.68 628.186 C 1139.44 635.332 1135.14 644.343 1132.57 651.647 C 1129.48 644.249 1125.85 638.654 1120.59 632.701 C 1122.6 628.761 1125.86 623.445 1125.92 619.226 z"/>
<path transform="translate(0,0)" fill="rgb(89,167,225)" d="M 1125.92 619.226 L 1128.64 617.418 C 1133.97 618.88 1135.74 623.134 1137.68 628.186 L 1136.37 629.559 L 1134.11 629.582 C 1130.64 627.115 1128.29 622.854 1125.92 619.226 z"/>
<path transform="translate(0,0)" fill="rgb(15,71,117)" d="M 1420.11 701.224 C 1418.94 698.523 1418.19 697.548 1418.76 694.69 C 1422.14 689.812 1426.7 684.182 1432.3 681.775 L 1434.97 683.911 C 1435.15 688.396 1435.4 692.878 1435.71 697.356 C 1432.93 702.532 1427.9 709.722 1422.39 712.169 L 1420.21 711.845 L 1419.3 709.892 L 1419.64 708.961 C 1420.89 705.523 1421.17 704.778 1420.11 701.224 z"/>
<path transform="translate(0,0)" fill="rgb(28,83,142)" d="M 1420.11 701.224 C 1418.94 698.523 1418.19 697.548 1418.76 694.69 C 1422.14 689.812 1426.7 684.182 1432.3 681.775 L 1434.97 683.911 C 1432.71 692.262 1426.89 694.744 1420.11 701.224 z"/>
<path transform="translate(0,0)" fill="rgb(41,114,184)" d="M 1393.12 700.291 C 1389.87 692.897 1402.07 684.4 1407.18 678.297 C 1408.79 688.985 1410.25 692.666 1405.89 702.532 C 1404.43 703.75 1399.57 711.18 1398.19 713.194 L 1393.12 700.291 z"/>
<path transform="translate(0,0)" fill="rgb(28,83,142)" d="M 1393.12 700.291 C 1399.32 699.986 1400.79 699.298 1405.89 702.532 C 1404.43 703.75 1399.57 711.18 1398.19 713.194 L 1393.12 700.291 z"/>
<path transform="translate(0,0)" fill="rgb(28,83,142)" d="M 1256.25 689.518 C 1267.49 697.967 1260.92 715.606 1254.97 725.175 C 1253.29 723.652 1250.57 712.766 1250.4 710.629 C 1249.68 701.51 1250.7 696.538 1256.25 689.518 z"/>
<path transform="translate(0,0)" fill="rgb(15,71,117)" d="M 1284.24 689.607 C 1289.3 694.105 1287.88 714.057 1286.23 720.09 C 1284.92 724.843 1283.73 725.34 1279.9 727.667 C 1273.14 712.348 1279.42 702.64 1284.24 689.607 z"/>
<path transform="translate(0,0)" fill="rgb(28,83,142)" d="M 1362.62 706.277 C 1374.49 713.049 1366.73 728.924 1357.63 734.139 C 1356.99 732.911 1354.65 719.312 1354.62 717.648 C 1354.55 713.614 1359.57 709.348 1362.62 706.277 z"/>
<path transform="translate(0,0)" fill="rgb(28,83,142)" d="M 1267.36 725.701 C 1276.68 734.121 1266.31 749.16 1260.55 756.264 C 1258.45 753.706 1258.16 741.161 1256.86 735.3 C 1261.5 731.717 1263.46 730.25 1267.36 725.701 z"/>
<path transform="translate(0,0)" fill="rgb(28,83,142)" d="M 1388.81 707.859 C 1391.23 709.698 1391.77 717.621 1390.8 720.564 C 1388.34 728.025 1385.43 730.419 1378.78 734.083 C 1369.65 722.596 1380.95 714.65 1388.81 707.859 z"/>
<path transform="translate(0,0)" fill="rgb(28,83,142)" d="M 1311.47 696.666 C 1318.71 703.658 1312.46 722.225 1306.97 729.163 C 1305.05 725.509 1302.62 713.629 1301.54 708.985 C 1304.8 705.928 1308.68 700.375 1311.47 696.666 z"/>
<path transform="translate(0,0)" fill="rgb(28,83,142)" d="M 1339.3 698.676 C 1343.68 703.858 1339.46 722.688 1334.46 726.885 L 1332.67 725.864 C 1330.57 708.397 1323.55 712.056 1339.3 698.676 z"/>
<path transform="translate(0,0)" fill="rgb(28,83,142)" d="M 1321.88 725.952 C 1324.27 728.531 1325.01 736.658 1325.64 740.55 C 1320.62 741.855 1314.41 742.901 1309.24 743.913 L 1307.01 743.544 L 1306.4 741.674 C 1308.09 737.659 1318.09 729.372 1321.88 725.952 z"/>
<path transform="translate(0,0)" fill="rgb(28,83,142)" d="M 1242.51 719.592 C 1246.88 731.277 1243.83 739.169 1236.77 748.584 C 1235.16 744.843 1234.33 737.335 1233.69 733.041 C 1236.6 728.84 1239.68 723.915 1242.51 719.592 z"/>
<path transform="translate(0,0)" fill="rgb(28,83,142)" d="M 1293.57 723.548 C 1301.46 729.599 1291.23 745.629 1287.11 751.357 L 1285.62 750.264 C 1284.57 745.785 1285.3 740.352 1285.65 735.68 C 1289.68 730.904 1291 729.453 1293.57 723.548 z"/>
<path transform="translate(0,0)" fill="rgb(41,114,184)" d="M 1514.09 670.333 C 1518.26 668.609 1528.92 665.696 1533.68 664.251 C 1533.42 666.888 1533.15 669.266 1533.14 671.926 C 1537.29 671.901 1543.14 671.688 1547.13 672.094 C 1541.9 672.945 1513.31 674.203 1509.97 671.828 L 1511.59 670.673 L 1511.59 671.561 L 1512.41 670.519 L 1514.09 670.333 z"/>
<path transform="translate(0,0)" fill="rgb(15,71,117)" d="M 1547.13 672.094 C 1541.9 672.945 1513.31 674.203 1509.97 671.828 L 1511.59 670.673 L 1511.59 671.561 L 1512.41 670.519 L 1514.09 670.333 C 1517.5 672.773 1528.16 671.973 1533.14 671.926 C 1537.29 671.901 1543.14 671.688 1547.13 672.094 z"/>
<path transform="translate(0,0)" fill="rgb(28,83,142)" d="M 1172.62 648.666 L 1173.64 645.281 L 1175.24 644.977 C 1178.59 648.112 1178.97 650.986 1178.24 655.315 C 1176.64 656.746 1176.4 657.002 1174.51 657.981 C 1169.21 661.053 1164.44 663.293 1158.93 665.904 C 1163.46 660.237 1168.24 654.419 1172.62 648.666 z"/>
<path transform="translate(0,0)" fill="rgb(41,114,184)" d="M 1172.62 648.666 L 1173.64 645.281 L 1175.24 644.977 C 1178.59 648.112 1178.97 650.986 1178.24 655.315 C 1176.64 656.746 1176.4 657.002 1174.51 657.981 C 1172.31 654.152 1172.51 653.095 1172.62 648.666 z"/>
<path transform="translate(0,0)" fill="rgb(15,71,117)" d="M 1411.76 705.504 L 1413.03 706.185 C 1419.25 713.986 1405.93 723.135 1400.58 727.399 L 1398.88 726.851 L 1398.04 725.054 C 1400.06 719.378 1408.51 714.069 1411.76 705.504 z"/>
<path transform="translate(0,0)" fill="rgb(28,83,142)" d="M 1224.56 742.733 L 1225.58 743.858 C 1227.54 753.508 1226.07 760.52 1216.3 764.174 L 1215.06 762.287 C 1215.44 758.79 1222.43 746.87 1224.56 742.733 z"/>
<path transform="translate(0,0)" fill="rgb(64,141,199)" d="M 1504.52 646.34 C 1513.8 639.924 1520.24 637.732 1530.88 634.105 L 1534.05 637.275 C 1527.04 640.695 1512.47 644.316 1504.52 646.34 z"/>
<path transform="translate(0,0)" fill="rgb(28,83,142)" d="M 1248.93 747.857 C 1251.04 749.578 1251.07 753.406 1250.27 755.822 C 1247.2 758.577 1242.67 759.5 1238.64 760.675 C 1238.36 760.597 1237.65 759.78 1237.38 759.51 C 1238.16 757.212 1245.52 751.665 1248.3 748.567 L 1248.93 747.857 z"/>
<path transform="translate(0,0)" fill="rgb(28,83,142)" d="M 1232.86 691.574 C 1238.58 696.297 1235.37 710.292 1233.81 716.533 L 1232.82 716.716 C 1231.43 713.484 1232.37 695.54 1232.86 691.574 z"/>
<path transform="translate(0,0)" fill="rgb(28,83,142)" d="M 1345.93 726.529 L 1347.79 727.964 C 1349.43 734.914 1347.5 737.418 1341.91 740.712 L 1339.49 737.55 C 1339.52 734.251 1343.72 729.66 1345.93 726.529 z"/>
<path transform="translate(0,0)" fill="rgb(64,141,199)" d="M 1515.83 133.569 L 1530.81 130.02 L 1532.89 134.149 C 1527.98 134.468 1520.9 133.856 1515.83 133.569 z"/>
<path transform="translate(0,0)" fill="rgb(15,71,117)" d="M 1275.06 747.702 C 1276.65 747.267 1278.3 748.117 1278.87 749.659 C 1279.44 751.202 1278.74 752.925 1277.25 753.628 C 1276.17 754.14 1274.89 753.997 1273.95 753.259 C 1273 752.52 1272.55 751.312 1272.79 750.136 C 1273.03 748.961 1273.9 748.019 1275.06 747.702 z"/>
<path transform="translate(0,0)" fill="rgb(15,71,117)" d="M 948.687 241.154 C 1022.67 228.036 1093.29 277.32 1106.51 351.285 C 1119.72 425.249 1070.52 495.937 996.574 509.243 C 922.495 522.572 851.653 473.269 838.418 399.173 C 825.182 325.076 874.573 254.297 948.687 241.154 z M 983.548 454.78 C 1034.39 446.138 1053.11 404.247 1045.24 356.38 C 1038.23 313.683 1002.52 289.933 960.345 295.256 C 938.779 300.23 922.696 308.319 910.52 327.735 C 897.871 348.244 893.753 372.89 899.048 396.397 C 908.812 437.954 942.319 457.863 983.548 454.78 z"/>
<path transform="translate(0,0)" fill="rgb(15,71,117)" d="M 595.098 245.343 C 609.505 244.782 630.627 245.076 645.484 245.231 C 681.295 246.174 712.829 241.192 747.768 252.625 C 800.109 269.753 818.227 320.853 802.845 371.043 C 796.055 393.198 779.256 409.226 758.485 419.239 C 767.769 431.34 776.435 445.306 784.831 458.168 C 794.391 472.813 806.123 488.664 813.631 504.305 C 801.851 504.124 791.874 504.191 780.098 504.699 C 768.106 505.311 759.406 504.915 747.542 503.633 C 743.794 499.356 733.815 482.706 730.388 477.185 C 720.727 461.671 710.987 446.206 701.167 430.792 C 684.386 430.394 667.597 430.475 650.821 431.034 C 651.107 435.35 651.02 439.772 650.894 444.095 C 650.31 464.08 650.88 484.05 650.793 504.031 C 631.25 504.329 609.663 503.672 591.017 504.448 C 590.414 484.945 590.918 462.501 590.926 442.807 L 590.948 322.674 L 590.826 270.416 C 590.822 263.858 590.696 255.692 591.167 249.06 C 591.304 247.14 593.238 246.499 595.098 245.343 z M 735.228 368.522 C 744.667 355.233 748.988 348.957 746.626 331.861 C 739.822 282.617 684.544 301.904 649.898 297.062 C 650.185 320.145 649.004 357.501 652.206 378.889 C 667.477 381.244 727.596 382.886 735.228 368.522 z"/>
<path transform="translate(0,0)" fill="rgb(15,71,117)" d="M 188.456 245.429 C 200.587 244.876 211.541 245.114 223.666 245.36 C 233.038 263.078 246.064 295.293 254.235 314.478 L 292.087 401.367 C 304.301 429.862 326.974 475.771 335.954 504.065 C 320.183 503.747 303.961 505.801 288.158 505.111 C 283.352 504.901 279.204 504.88 274.386 505.156 C 264.813 488.051 257.352 468.396 250.488 450.095 C 235.412 450.494 220.328 450.538 205.25 450.227 C 182.564 450.586 159.11 451.013 136.447 450.087 C 134.961 457.578 120.781 497.505 115.918 502.732 C 109.345 505.915 63.9091 505.041 55.7126 503.681 C 60.017 483.113 71.8083 463.248 79.3246 444.182 C 87.4993 423.446 96.1227 404.349 104.84 384.024 L 138.542 304.574 C 145.596 287.549 154.018 265.669 161.664 249.286 C 167.01 244.915 179.996 246.151 188.456 245.429 z M 157.665 400.852 C 170.025 401.105 182.389 401.141 194.75 400.963 C 204.034 401.038 222.962 401.684 231.486 400.803 C 224.094 387.052 196.924 313.711 193.2 309.743 C 183.727 336.808 168.971 373.566 157.665 400.852 z"/>
<path transform="translate(0,0)" fill="rgb(15,71,117)" d="M 790.085 574.78 C 809.623 575.284 829.171 575.232 848.706 574.624 C 850.169 659.397 848.763 749.127 848.695 834.239 L 838.25 834.353 C 822.809 834.882 805.617 834.435 789.957 834.5 L 789.948 728.032 L 679.914 727.84 C 680.598 762.589 680.748 799.614 680.693 834.456 C 663.619 833.797 639.007 834.391 621.811 834.889 C 620.806 799.556 621.73 759.418 621.802 723.792 L 621.882 574.839 C 633.683 576.16 667.596 574.882 680.723 574.648 C 681.445 608.123 681.154 641.612 679.85 675.069 C 716.532 675.362 753.215 675.308 789.895 674.906 C 791.408 644.8 789.649 606.082 790.085 574.78 z"/>
<path transform="translate(0,0)" fill="rgb(15,71,117)" d="M 1135.01 244.862 C 1144.99 245.5 1157.23 245.444 1167.24 245.209 C 1224.8 243.863 1283.29 246.564 1340.71 245.781 C 1341.2 298.856 1344.02 283.901 1311.33 326.01 L 1252.05 400.938 C 1240.28 415.865 1222.31 439.538 1209.57 453.397 C 1244.36 454.923 1280.15 452.921 1315.04 453.625 C 1325.42 453.834 1337.05 453.908 1347.29 453.048 C 1347.45 461.197 1348.83 498.463 1346.81 503.442 C 1344.26 505.452 1341.3 505.195 1337.89 505.43 C 1305.95 503.628 1270.75 504.355 1238.65 504.52 L 1131.75 504.253 C 1131.52 490.371 1131.56 476.486 1131.86 462.605 C 1135.52 455.719 1160.29 426.257 1166.77 418.025 C 1186.58 392.854 1207.58 367.875 1227.39 342.582 C 1239.22 327.48 1251.84 314.218 1262.38 297.902 C 1258.42 296.862 1231.09 297.605 1225.34 297.552 C 1195.44 297.278 1164.79 298.314 1134.94 297.271 C 1134.37 282.44 1134.45 259.656 1135.01 244.862 z"/>
<path transform="translate(0,0)" fill="rgb(15,71,117)" d="M 429.168 242.394 C 450.976 241.321 476.473 240.59 497.432 245.631 C 505.663 247.611 542.817 258.468 540.808 267.314 C 537.729 280.871 528.281 299.073 524.262 313.655 C 501.855 303.391 485.592 291.687 457.996 291.515 C 447.841 290.872 422.082 296.579 415.82 304.549 C 384.728 344.125 477.392 350 495.311 357.183 C 515.078 365.106 521.482 366.588 534.424 378.487 C 563.422 405.148 560.688 453.18 534.317 479.986 C 513.653 500.732 482.913 509.259 453.75 509.352 C 421.898 508.755 393.877 504.74 365.246 489.666 C 358.011 485.857 351.885 483.421 348.298 475.502 C 347.579 469.573 363.293 437.031 367.108 430.395 C 385.7 440.768 403.441 451.598 424.547 455.47 C 438.749 458.075 453.031 459.931 467.159 456.624 C 475.304 454.718 486.456 450.551 490.748 443.005 C 505.039 417.878 469.398 407.388 451.747 402.906 C 429.705 397.528 407.268 393.934 387.2 382.744 C 374.819 375.84 361.748 365.582 356.162 352.175 C 346.805 329.719 348.502 304.667 360.588 283.564 C 376.256 255.626 401.336 250.404 429.168 242.394 z"/>
<path transform="translate(0,0)" fill="rgb(15,71,117)" d="M 474.367 571.365 C 495.558 567.555 525.46 573.665 546.182 579.052 C 591.745 590.899 568.787 610.135 556.979 642.654 C 537.26 631.073 515.116 621.641 491.979 621.613 C 477.962 622.544 460.466 623.508 450.219 634.176 C 442.175 641.815 443.043 657.394 452.892 663.053 C 502.935 691.741 586.963 678.96 586.294 758.772 C 585.757 822.832 532.187 837.194 477.73 839.04 C 447.189 838.835 404.356 827.678 381.237 806.482 C 387.828 790.714 394.32 774.61 401.926 759.331 C 426.626 777.542 459.942 789.816 490.966 787.873 C 504.655 787.015 514.206 781.104 524.396 772.767 C 525.97 768.35 527.413 763.192 526.787 758.535 C 521.78 736.693 473.728 731.274 456.868 725.885 C 421.822 714.682 391.492 702.502 387.254 661.181 C 385.458 643.676 388.974 619.531 400.56 605.467 C 420.52 581.239 444.472 575.091 474.367 571.365 z"/>
<path transform="translate(0,0)" fill="rgb(15,71,117)" d="M 70.1111 574.338 C 109.152 575.153 148.203 575.371 187.251 574.992 C 203.89 574.983 235.967 576.102 251.335 574.319 C 250.659 586.835 250.973 612.5 251.648 624.667 C 228.969 629.39 196.172 623.531 171.494 625.7 C 155.278 627.126 140.508 624.088 122.671 626.749 C 121.284 641.774 123.063 671.902 123.482 688.154 C 134.279 689.37 153.759 688.98 165.2 688.989 L 235.929 688.908 L 235.829 708.75 L 235.867 740.2 C 220.026 739.906 132.074 738.753 123.62 742.108 C 120.411 750.881 123.2 780.36 122.873 791.289 C 122.465 804.946 121.767 821.434 121.949 835.058 C 107.014 833.903 78.3423 834.578 62.9342 834.855 C 61.4718 752.597 63.4587 669.844 62.609 587.534 C 62.5724 583.995 62.4404 580.487 63.1965 577.018 C 65.8383 574.508 65.9185 575.177 70.1111 574.338 z"/>
<path transform="translate(0,0)" fill="rgb(15,71,117)" d="M 1540 245.295 C 1561.13 244.694 1577.9 248.883 1598.3 244.784 C 1591.56 263.239 1584.46 272.184 1575.09 288.085 L 1541.43 345.341 C 1532.81 363.333 1518.94 383.127 1509.33 401.791 C 1496.4 426.909 1501.93 441.386 1501.87 468.504 C 1501.84 479.884 1501.06 492.752 1500.45 504.176 C 1484.54 503.925 1459.41 504.528 1443.83 505.498 C 1443.76 497.739 1443.05 488.055 1442.88 480.075 C 1442.48 461.86 1444.84 431.63 1441.05 414.701 C 1437.95 400.817 1419.11 371.918 1411.98 359.033 C 1396.89 331.78 1380.11 305.25 1365.8 277.519 C 1362.18 270.493 1352.07 253.961 1350.56 247.383 C 1352.86 245.654 1356.63 245.747 1359.71 245.461 C 1367.6 245.243 1410.39 244.437 1414.05 249.89 C 1436.34 283.172 1453.39 320.742 1474.15 355.025 C 1476.32 352.072 1478.76 348.733 1480.62 345.594 C 1500.34 312.243 1519.2 277.942 1540 245.295 z"/>
<path transform="translate(0,0)" fill="rgb(15,71,117)" d="M 286.138 575.027 C 305.997 575.096 325.086 574.576 344.969 575.453 L 344.804 755.473 C 344.826 769.745 345.93 824.942 343.673 835.939 C 324.581 834.589 305.436 834.167 286.303 834.674 L 286.138 575.027 z"/>
<path transform="translate(0,0)" fill="rgb(9,62,107)" d="M 91.1442 902.478 C 110.851 897.733 130.666 909.894 135.357 929.614 C 140.049 949.334 127.834 969.115 108.101 973.753 C 94.1364 977.035 79.5409 971.863 70.7575 960.521 C 61.9742 949.179 60.6195 933.754 67.2916 921.055 C 72.1973 911.717 80.8897 904.948 91.1442 902.478 z M 103.617 962.31 C 117.974 958.279 126.339 945.238 122.011 930.603 C 120.112 924.155 115.689 918.748 109.744 915.611 C 105.134 913.176 100.432 913.12 95.3289 913.145 C 81.2305 918.165 72.7635 931.667 77.928 946.33 C 79.9691 952.216 84.3366 957.005 90.0092 959.58 C 94.107 961.432 99.1124 962.503 103.617 962.31 z"/>
<path transform="translate(0,0)" fill="rgb(9,62,107)" d="M 332.573 919.278 C 341.709 917.985 344.083 923.467 350.274 926.474 C 354.053 925.775 353.94 924.62 357.168 921.073 C 398.95 913.942 391.401 942.441 390.841 973.905 C 386.606 973.324 382.27 973.19 377.995 972.982 C 377.854 964.986 379.63 937.691 374.676 934.176 C 353.108 918.874 354.714 952.872 354.471 959.753 C 354.39 963.599 354.727 969.164 352.969 972.362 C 350.351 974.448 345.292 973.842 341.76 973.778 C 341.875 968.658 342.63 932.262 336.942 930.999 C 311.214 925.288 321.337 956.888 317.612 970.385 C 316.893 972.991 314.967 973.335 312.872 974.079 C 309.628 973.465 309.339 973.919 307 971.935 C 305.737 967.398 305.757 926.685 307.6 921.053 C 312.463 916.251 317.055 923.503 319.366 922.598 C 323.576 920.95 327.001 920.01 332.573 919.278 z"/>
<path transform="translate(0,0)" fill="rgb(9,62,107)" d="M 936.437 919.414 C 939.961 918.984 941.39 918.639 944.888 919.367 C 958.006 927.346 951.294 951.442 962.022 954.129 C 964.06 945.619 969.124 921.989 977.525 919.099 C 988.435 919.756 994.164 948.854 995.924 957.761 C 1000.86 946.272 1004.75 917.398 1019.19 919.96 C 1020.89 923.823 1017.95 929.92 1016.42 934.287 C 1010.52 947.548 1007.83 961.191 1002.22 973.897 C 998.306 973.681 994.293 973.271 990.382 972.92 C 985.724 960.629 982.525 947.403 977.618 935.727 C 975.34 946.9 970.129 962.328 966.633 973.632 C 962.477 973.463 958.319 973.344 954.159 973.274 C 951.928 968.828 935.487 922.434 936.437 919.414 z"/>
<path transform="translate(0,0)" fill="rgb(9,62,107)" d="M 791.931 919.281 C 813.275 916.992 820.316 932.748 821.432 950.931 C 807.722 950.89 794.013 951.163 780.316 951.75 C 791.498 963.396 796.647 967.901 811.098 957.749 C 813.237 958.716 816.588 963.456 818.267 965.565 C 803.081 978.022 790.321 976.05 774.522 966.011 C 767.441 951.27 767.15 941.221 774.76 926.598 C 781.472 922.315 784.098 920.775 791.931 919.281 z M 806.04 941.896 L 808.362 940.927 C 808.437 936.74 804.792 933.755 801.755 930.603 C 797.455 930.639 790.631 930.477 786.595 931.198 C 784.843 933.937 782.69 936.46 783.162 939.594 C 787.6 944.041 799.377 941.713 806.04 941.896 z"/>
<path transform="translate(0,0)" fill="rgb(9,62,107)" d="M 1141.83 919.344 C 1164.36 920.379 1168.16 929.968 1170.33 950.443 C 1155.08 950.686 1144.62 951.574 1129.13 950.956 C 1129.71 951.84 1130.31 952.715 1130.93 953.578 C 1139.7 965.837 1149.05 965.473 1160.55 956.965 C 1164.52 961.274 1165.9 961.569 1165.02 967.406 C 1157.74 978.561 1134.17 972.723 1124.3 966.364 C 1113.32 947.434 1116.46 922.504 1141.83 919.344 z M 1153.05 941.815 C 1156.02 940.855 1155.64 941.467 1157.33 939.425 C 1156.43 930.095 1143.86 930.492 1137.27 930.955 C 1134.67 933.66 1132.63 935.297 1131.71 938.919 C 1133.86 943.686 1147.67 941.838 1153.05 941.815 z"/>
<path transform="translate(0,0)" fill="rgb(9,62,107)" d="M 426.293 919.322 C 434.345 920.062 436.247 920.643 443.467 924.046 C 451.287 934.708 451.555 938.225 452.323 950.977 C 444.101 951.03 419.034 949.783 413.984 953.097 L 414.528 955.989 C 418.939 959.743 423.464 961.419 428.79 963.245 C 431.281 962.461 442.588 958.123 443.735 958.046 C 447.066 962.067 448.703 963.09 446.836 968.349 C 444.391 971.162 441.34 972.511 437.694 972.908 C 423.301 974.476 417.028 973.293 405.98 965.271 C 397.411 946.336 398.348 934.233 414.711 921.169 L 426.293 919.322 z M 412.78 941.617 L 437.107 941.866 C 439.872 940.828 439.025 941.576 440.388 939.147 C 436.545 929.261 427.606 930.07 418.623 930.968 C 415.571 935.321 414.821 936.705 412.78 941.617 z"/>
<path transform="translate(0,0)" fill="rgb(9,62,107)" d="M 582.779 919.398 C 584.555 919.376 586.333 919.386 588.109 919.43 C 613.631 920.144 610.502 949.741 609.288 967.683 C 609.1 970.466 608.187 971.671 606.301 973.388 C 605.182 973.616 603.962 973.958 602.962 973.357 C 594.828 968.47 587.969 974.576 579.157 974.021 C 572.293 973.59 569.102 970.834 564.511 965.969 C 552.285 942.537 582.09 942.793 595.135 939.485 C 596.522 939.133 596.546 937.973 596.924 936.716 C 591.941 922.619 572.432 937.487 565.56 929.675 C 564.16 919.772 575.656 919.827 582.779 919.398 z M 585.841 965.401 C 591.228 962.447 594.049 961.17 596.152 955.264 C 595.621 951.965 596.23 953.193 593.626 950.702 C 590.447 950.346 588.88 950.35 585.728 950.416 C 579.507 951.302 574.382 951.148 574.661 958.825 C 577.471 964.089 580.414 964.215 585.841 965.401 z"/>
<path transform="translate(0,0)" fill="rgb(9,62,107)" d="M 1046.48 919.308 C 1053.48 919.83 1058.28 919.995 1063.49 925.343 C 1072.71 934.82 1069.93 960.724 1069.26 973.756 C 1065.86 973.483 1058.37 971.509 1056.18 971.721 C 1041.12 973.177 1034.91 978.246 1023.93 964.818 C 1015.86 935.664 1049.3 945.91 1056.68 938.228 C 1055.89 925.125 1035.43 931.911 1028.18 934.162 L 1024.34 924.625 C 1034.21 921.452 1036.38 919.987 1046.48 919.308 z M 1050 963.646 C 1054.27 960.985 1059.76 957.918 1056.66 952.454 C 1051.68 949.325 1047.14 950.231 1041.11 950.465 C 1038.2 951.902 1037.94 952.182 1036.26 954.965 C 1035.44 964.252 1042.33 966.308 1050 963.646 z"/>
<path transform="translate(0,0)" fill="rgb(9,62,107)" d="M 256.499 920.373 C 265.168 919.199 271.918 919.657 280.55 920.389 C 283.942 922.934 285.658 924.229 288.093 927.62 C 293.08 934.566 293.197 964.887 291.305 971.975 C 288.932 974.465 290.134 973.862 286.819 974.313 C 283.387 973.204 282.327 971.851 279.751 969.338 C 275.372 969.376 276.316 971.56 272.564 973.537 C 268.609 975.62 257.82 973.123 253.514 972.072 C 245.049 966.581 242.251 954.853 249.095 947.262 C 255.194 940.498 271.596 941.645 280.214 941.638 C 279.643 940.008 278.054 934.554 277.122 933.593 C 269.983 926.235 254.713 934.503 249.015 931.155 C 247.352 928.088 247.77 929.433 247.915 925.486 C 249.685 922.888 253.505 921.677 256.499 920.373 z M 272.814 963.352 C 277.707 960.308 281.227 956.988 277.23 951.316 C 272.767 950.195 270.667 952.341 264.552 951.447 C 261.226 952.526 259.784 952.699 257.747 955.64 C 256.721 964.937 266.507 964.352 272.814 963.352 z"/>
<path transform="translate(0,0)" fill="rgb(9,62,107)" d="M 882.57 897.088 C 885.46 897.285 887.672 897.167 890.125 898.756 C 894.197 903.787 892.36 916.761 892.468 924.654 C 919.058 908.488 932.562 927.862 930.513 953.228 C 929.981 959.815 930.966 965.192 929.34 972.099 C 926.849 973.726 920.972 973.591 918.546 971.766 C 917.413 965.729 918.022 947.759 917.988 940.79 C 917.32 937.658 915.536 933.945 914.228 930.923 C 891.997 929.45 891.818 937.623 892.199 957.996 C 892.297 963.25 892.499 968.677 892.666 973.94 C 888.562 973.532 884.46 973.409 880.342 973.242 C 882.229 950.372 878.477 924.769 880.226 901.695 C 880.344 900.15 881.63 898.298 882.57 897.088 z"/>
<path transform="translate(0,0)" fill="rgb(9,62,107)" d="M 679.167 902.382 C 685.859 902.064 720.798 901.382 724.345 904.016 C 724.688 907.335 725.631 910.407 724.209 912.828 C 716.901 914.093 697.814 913.28 689.051 913.373 C 689.242 920.382 689.295 927.469 689.399 934.486 C 695.773 934.52 718.092 933.122 721.618 936.184 C 721.832 940.318 722.418 940.103 720.836 943.408 C 715.121 946.721 696.643 945.146 688.733 945.078 C 689.26 953.964 688.939 963.999 688.842 972.986 L 676.219 973.687 C 674.835 952.528 676.279 929.325 675.869 907.993 C 675.799 904.349 676.401 903.835 679.167 902.382 z"/>
<path transform="translate(0,0)" fill="rgb(9,62,107)" d="M 212.032 919.397 C 236.666 918.038 235.939 942.449 235.526 960.222 C 235.428 964.422 235.243 967.604 234.327 971.758 C 232.217 973.607 226.773 973.521 223.635 973.756 C 223.221 955.192 230.979 923.942 202.642 932.242 C 196.773 940.897 198.183 961.492 197.659 973.52 L 185.25 973.291 C 186.259 958.382 185.058 936.373 185.162 920.698 L 187.308 919.483 C 194.759 918.743 195.801 924.189 200.551 922.158 C 204.878 920.307 207.183 919.846 212.032 919.397 z"/>
<path transform="translate(0,0)" fill="rgb(9,62,107)" d="M 490.853 919.355 C 505.04 919.936 512.507 926.871 512.773 942.002 C 512.874 947.757 513.543 966.742 511.482 970.889 C 508.21 973.794 509.784 972.938 505.346 973.968 C 490.542 969.874 510.674 934.478 491.928 930.804 C 489.587 930.345 484.457 930.599 481.89 930.639 C 471.231 937.138 476.692 962.251 473.531 972.195 C 473.114 973.506 470.659 973.807 468.917 974.329 C 467.308 973.944 465.152 973.738 464.573 972.118 C 462.147 965.335 462.498 926.655 463.254 920.704 C 467.693 917.652 472.364 919.135 474.88 923.815 C 482.602 920.949 480.647 919.628 490.853 919.355 z"/>
<path transform="translate(0,0)" fill="rgb(9,62,107)" d="M 838.706 920.321 C 842.93 919.86 847.179 919.659 851.427 919.72 C 856.592 919.796 864.005 920.095 867.758 923.974 C 868.47 927.175 868.535 925.823 867.11 929.199 C 861.701 933.681 849.225 930.508 840.082 931.618 L 839.128 935.239 C 845.267 942.141 855.258 941.277 863.527 945.352 C 879.642 953.294 870.037 969.581 855.952 973.207 C 848.289 973.96 816.721 974.911 830.417 959.141 C 832.247 958.774 845.34 962.492 848.977 963.275 L 849.467 963.114 C 853.08 961.894 856.2 961.589 858.212 958.437 C 857.49 951.838 833.3 952.292 829.42 942.083 C 825.243 931.094 829.319 925.265 838.706 920.321 z"/>
<path transform="translate(0,0)" fill="rgb(9,62,107)" d="M 529.318 907.415 C 532.684 907.585 535.12 907.5 538.25 908.78 C 540.707 912.481 540.036 915.179 540.288 920.08 C 546.635 919.917 551.808 918.532 555.134 924.851 C 553.363 932.226 545.953 930.729 540.066 930.346 C 539.734 936.733 539.739 947.153 540.219 953.585 C 541.287 967.882 548.976 958.814 556.597 965.03 L 556.283 969.579 C 554.109 974.344 547.415 975.375 542.73 974.234 C 534.586 972.252 532.764 970.276 528.441 963.353 C 527.041 952.201 529 941.728 526.589 931.206 C 526.406 930.41 523.363 929.46 521.867 928.678 C 520.564 925.696 520.911 924.612 521.339 921.481 C 523.901 919.726 525.161 919.078 526.869 916.389 C 527.217 911.972 527.237 911.288 529.318 907.415 z"/>
<path transform="translate(0,0)" fill="rgb(9,62,107)" d="M 1085.97 908.292 C 1090.96 907.787 1095.65 906.072 1097.93 911.144 C 1094.64 926.496 1105.97 916.22 1111.69 921.047 C 1111.7 925.765 1112.35 924.914 1110.24 928.558 C 1107.22 930.376 1101.46 929.934 1097.71 929.97 C 1097.82 938.172 1095.96 959.402 1103.46 963.535 C 1106.86 963.027 1107.66 962.924 1111.13 963.114 C 1114.85 965.266 1113.79 964.737 1115.94 969.208 C 1111.85 975.078 1103.42 974.525 1097 973.318 C 1076.69 969.5 1091.71 941.647 1084.62 930.87 C 1082.32 930.016 1081.27 930.173 1078.77 930.136 L 1077.3 928.532 C 1077.23 920.232 1078.83 922.418 1085.05 918.185 C 1086.72 915.434 1086.11 911.716 1085.97 908.292 z"/>
<path transform="translate(0,0)" fill="rgb(9,62,107)" d="M 626.376 897.279 L 636.371 898.508 C 636.158 909.564 636.734 965.638 635.286 972.209 L 633.215 973.213 C 630.039 973.234 627.423 973.536 624.642 971.963 C 622.212 967.514 623.517 900.845 626.376 897.279 z"/>
<path transform="translate(0,0)" fill="rgb(9,62,107)" d="M 743.843 918.632 L 745.444 919.555 L 745.923 923.256 C 751.879 925.514 756.893 915.496 763.279 921.011 C 766.711 933.558 755.331 929.399 750.894 934.613 C 745.705 940.712 747.424 955.586 747.598 963.42 C 747.408 970.165 746.678 973.713 738.674 974.409 C 737.789 973.994 736.128 973.398 735.871 972.59 C 733.558 965.322 733.851 927.075 734.713 921.179 C 737.266 919.093 740.428 919.103 743.843 918.632 z"/>
<path transform="translate(0,0)" fill="rgb(9,62,107)" d="M 148.659 919.405 C 152.108 919.598 154.514 919.601 157.853 920.569 C 158.32 921.878 158.737 923.161 159.049 924.517 C 166.403 920.711 168 919.98 176.188 918.852 C 175.187 942.376 159.787 922.79 159.048 948.75 C 158.771 956.772 161.505 969.293 155.113 974.562 C 146.157 976.125 146.902 968.071 146.917 962.126 C 146.951 948.586 146.987 935.041 147.099 921.502 C 147.099 921.502 148.522 919.589 148.659 919.405 z"/>
<path transform="translate(0,0)" fill="rgb(9,62,107)" d="M 1179.76 919.748 C 1189.39 919.44 1186.89 920.134 1194.53 923.527 C 1199.48 920.298 1202.6 919.892 1208.42 919.865 C 1209.53 921.3 1210.36 923.733 1209.8 925.307 C 1204.79 939.572 1192.88 925.898 1192.08 947.961 L 1192.06 948.75 C 1192.18 954.233 1193.67 969.854 1189.9 972.935 C 1186.75 973.337 1185.1 973.838 1182.23 972.368 C 1179.02 969.059 1180.05 928.673 1179.76 919.748 z"/>
<path transform="translate(0,0)" fill="rgb(57,127,185)" fill-opacity="0.0627451" d="M 1472.1 824.473 C 1483.43 831.281 1494.71 838.191 1505.92 845.204 C 1503.29 845.774 1500.78 847.162 1498.88 847.124 L 1498.08 849.236 C 1495.53 847.352 1475.7 827.882 1472.1 824.473 z"/>
<path transform="translate(0,0)" fill="rgb(16,49,76)" fill-opacity="0.988235" d="M 1968.46 341.936 C 1968.53 338.474 1968.28 334.9 1969.71 331.807 L 1971.03 331.91 C 1973.62 335.748 1974.36 340.454 1975.41 344.993 C 1973.63 343.256 1972.08 342.492 1969.96 341.24 L 1968.46 341.936 z"/>
</svg>